<svg id="Layer_1" data-name="Layer 1" xmlns="http://www.w3.org/2000/svg" viewBox="0 0 60 60"><title>Cr4ck_Icons</title><path fill="currentColor" d="M53.822,21.438a.969.969,0,0,0-.633,1.214A24.284,24.284,0,1,1,37.323,6.786a.968.968,0,1,0,.582-1.846A26.218,26.218,0,1,0,55.037,22.07.969.969,0,0,0,53.822,21.438Z"/><path fill="currentColor" d="M30,11.57A18.406,18.406,0,1,0,48.405,29.976a18.231,18.231,0,0,0-1.731-7.8,1,1,0,1,0-1.811.85,16.248,16.248,0,0,1,1.542,6.954A16.405,16.405,0,1,1,30,13.57a16.244,16.244,0,0,1,7.413,1.766,1,1,0,1,0,.9-1.783A18.216,18.216,0,0,0,30,11.57Z"/><path fill="currentColor" d="M30,23.112a6.905,6.905,0,0,1,1.769.23h0c.209.056.414.121.614.195a1,1,0,0,0,.691-1.877q-.388-.143-.79-.25h0a8.858,8.858,0,1,0,5.975,5.341,1,1,0,0,0-1.863.729A6.865,6.865,0,1,1,30,23.112Z"/><path fill="currentColor" d="M59.309,7.5a.888.888,0,0,0-.124-.084A.918.918,0,0,0,58.433,7H53V1.156A1,1,0,0,0,52,.145a.983.983,0,0,0-.867.542l-7.6,7.675a1,1,0,0,0-.54.885v6.379L29.582,29.254a1.022,1.022,0,0,0,0,1.43.985.985,0,0,0,1.408,0L44.464,17H50.89a.944.944,0,0,0,.665-.28l7.754-7.875A.965.965,0,0,0,59.309,7.5ZM50.32,15h-4.1l6-6h4.1ZM45,9.813l6-5.969v3.8l-.081.2L45,13.758Z"/></svg>