<svg id="Layer_1" data-name="Layer 1" xmlns="http://www.w3.org/2000/svg" viewBox="0 0 60 60"><title>Cr4ck_Icons</title><path fill="currentColor" d="M30,23.707a6.269,6.269,0,1,0,6.269,6.269A6.276,6.276,0,0,0,30,23.707Zm0,10.538a4.269,4.269,0,1,1,4.269-4.269A4.274,4.274,0,0,1,30,34.245Z"/><path fill="currentColor" d="M58.223,29H56.292A26.343,26.343,0,0,0,31,3.708V1.753a1,1,0,1,0-2,0V3.685A26.343,26.343,0,0,0,3.708,29H2a1,1,0,0,0,0,2H3.709A26.343,26.343,0,0,0,29,56.268v1.956a1,1,0,0,0,2,0V56.292A26.343,26.343,0,0,0,56.292,31h1.932a1,1,0,0,0,0-2ZM31,54.292v-3.9a1,1,0,0,0-2,0v3.881A24.343,24.343,0,0,1,5.709,31h4.1a1,1,0,0,0,0-2h-4.1A24.343,24.343,0,0,1,29,5.685v3.9a1,1,0,1,0,2,0V5.708A24.343,24.343,0,0,1,54.292,29H50.411a1,1,0,0,0,0,2h3.881A24.343,24.343,0,0,1,31,54.292Z"/></svg>