<svg xmlns="http://www.w3.org/2000/svg" viewBox="0 0 128 64"><defs><style>.cls-1,.cls-2{stroke:'currentColor';stroke-miterlimit:10;}.cls-1{stroke-width:0.4px;}.cls-2{stroke-width:0.4px;}</style></defs><title>logo</title><g id="Layer_1" data-name="Layer 1"><path fill="currentColor" d="M26.95,41.28a4.23,4.23,0,0,0-2.41-3.08A3.24,3.24,0,0,0,23.32,38a3.13,3.13,0,0,0-2.7,1.63,6.75,6.75,0,0,0-.91,3.63q0,3.2,1.77,4.59a2.91,2.91,0,0,0,1.82.65,3.37,3.37,0,0,0,2.94-1.67,5.36,5.36,0,0,0,.72-1.62l4.66,1.36a8.14,8.14,0,0,1-4.25,5.07,9,9,0,0,1-13.07-8.39,8.89,8.89,0,0,1,3.2-7.31,9,9,0,0,1,5.81-2,8.46,8.46,0,0,1,8.31,6Z"/><path fill="currentColor" d="M41.64,34.21a5.36,5.36,0,0,1,4.68,2.39,6.58,6.58,0,0,1,1.12,3.75A5.41,5.41,0,0,1,44,45.7l4.32,6.5H42.57l-3.63-6.12h-1.1V52.2h-5v-14H31.63l1.22-4Zm-3.8,4v3.85h2.32a1.73,1.73,0,0,0,1.77-1.15,2.16,2.16,0,0,0,.14-.76,1.85,1.85,0,0,0-.91-1.7,2.13,2.13,0,0,0-1-.24Z"/><path fill="currentColor" d="M79.4,45.69l-2.15,7.1h-.93v3.72H67.49V52.79H50.55V47.42l.13-.17h-.13L62.67,24.69H76.32v21Zm-19.6,0h7.69V31.92Z"/><path fill="currentColor" d="M93,41.28a4.24,4.24,0,0,0-2.41-3.08A3.28,3.28,0,0,0,89.33,38a3.12,3.12,0,0,0-2.7,1.63,6.74,6.74,0,0,0-.91,3.63q0,3.2,1.77,4.59a2.91,2.91,0,0,0,1.82.65,3.37,3.37,0,0,0,2.94-1.67A5.36,5.36,0,0,0,93,45.15l4.66,1.36a8.14,8.14,0,0,1-4.25,5.07,9,9,0,0,1-13.07-8.39,8.89,8.89,0,0,1,3.2-7.31,9,9,0,0,1,5.81-2,8.45,8.45,0,0,1,8.31,6Z"/><path fill="currentColor" d="M107.94,42.19l6.67,10h-5.73l-3.7-6.26-1.31,1.79V52.2h-5v-14H97.64l1.22-4h5v6.4l4.28-6.4h5.73Z"/></g><g id="Layer_2" data-name="Layer 2"><path fill="currentColor" class="cls-1" d="M39.73,13.64a2,2,0,1,0,2,2A2,2,0,0,0,39.73,13.64Zm0,3.43a1.39,1.39,0,1,1,1.39-1.39A1.39,1.39,0,0,1,39.73,17.07Z"/><path fill="currentColor" class="cls-1" d="M48.91,15.36h-.63a8.57,8.57,0,0,0-8.23-8.23V6.49a.33.33,0,0,0-.65,0v.63a8.57,8.57,0,0,0-8.23,8.24h-.56a.33.33,0,0,0,0,.65h.56a8.57,8.57,0,0,0,8.23,8.22v.64a.33.33,0,1,0,.65,0v-.63A8.57,8.57,0,0,0,48.28,16h.63a.33.33,0,1,0,0-.65Zm-8.86,8.23V22.32a.33.33,0,1,0-.65,0v1.26A7.92,7.92,0,0,1,31.82,16h1.33a.33.33,0,0,0,0-.65H31.82A7.92,7.92,0,0,1,39.4,7.77V9a.33.33,0,0,0,.65,0V7.78a7.92,7.92,0,0,1,7.58,7.58H46.37a.33.33,0,0,0,0,.65h1.26A7.92,7.92,0,0,1,40.05,23.59Z"/><path fill="currentColor" class="cls-2" d="M97,13.39a.33.33,0,0,0-.21.41A8.24,8.24,0,1,1,91.4,8.42a.33.33,0,1,0,.2-.63,8.89,8.89,0,1,0,5.81,5.81A.33.33,0,0,0,97,13.39Z"/><path fill="currentColor" class="cls-2" d="M88.91,10a6.24,6.24,0,1,0,6.24,6.24,6.19,6.19,0,0,0-.59-2.65.34.34,0,0,0-.61.29,5.51,5.51,0,0,1,.52,2.36,5.57,5.57,0,1,1-5.57-5.57,5.51,5.51,0,0,1,2.52.6.34.34,0,0,0,.31-.6A6.18,6.18,0,0,0,88.91,10Z"/><path fill="currentColor" class="cls-2" d="M88.91,14a2.34,2.34,0,0,1,.6.08h0l.21.07.12,0a.34.34,0,0,0,.12-.66l-.27-.08h0a3,3,0,1,0,2,1.81.34.34,0,0,0-.63.25A2.33,2.33,0,1,1,88.91,14Z"/><path fill="currentColor" class="cls-2" d="M98.86,8.66l0,0a.31.31,0,0,0-.26-.14H96.72v-2a.34.34,0,0,0-.34-.34.33.33,0,0,0-.29.18L93.51,9a.34.34,0,0,0-.18.3v2.16L88.77,16a.35.35,0,0,0,0,.49.33.33,0,0,0,.48,0l4.57-4.64H96l.12,0a.32.32,0,0,0,.1-.07l2.63-2.67A.33.33,0,0,0,98.86,8.66Zm-3,2.55H94.42l2-2h1.39ZM94,9.45l2-2V8.71l0,.07-2,2Z"/><path fill="currentColor" d="M74.91,16H64.23a.24.24,0,0,0-.06-.21l-2.74-2.74L56,13h0a.25.25,0,0,0-.25.25.23.23,0,0,0,.15.21.24.24,0,0,0,0,.3l2.55,2.55L55.93,18.9a.24.24,0,0,0,0,.3.23.23,0,0,0-.15.21.25.25,0,0,0,.25.25h0l5.43-.05,2.74-2.74a.25.25,0,0,0,0-.34H74.91a.25.25,0,0,0,0-.5ZM63.68,16H59s0,0-.08,0l-2.54-2.54,4.86,0Zm-2.46,3.08-4.86,0,2.57-2.57s0,0,0-.06h4.84Z"/></g></svg>